<?xml version="1.0" encoding="UTF-8" standalone="no"?>
<!-- Created with Inkscape (http://www.inkscape.org/) -->

<svg
   xmlns:dc="http://purl.org/dc/elements/1.1/"
   xmlns:cc="http://creativecommons.org/ns#"
   xmlns:rdf="http://www.w3.org/1999/02/22-rdf-syntax-ns#"
   xmlns:svg="http://www.w3.org/2000/svg"
   xmlns="http://www.w3.org/2000/svg"
   xmlns:sodipodi="http://sodipodi.sourceforge.net/DTD/sodipodi-0.dtd"
   xmlns:inkscape="http://www.inkscape.org/namespaces/inkscape"
   width="30"
   height="30"
   id="svg3125"
   version="1.1"
   inkscape:version="0.48.2 r9819"
   inkscape:export-filename="/Users/luke.reimer/pages/Projects/active/burkebuilders/img/phone.png"
   inkscape:export-xdpi="90"
   inkscape:export-ydpi="90"
   sodipodi:docname="New document 4">
  <defs
     id="defs3127" />
  <sodipodi:namedview
     id="base"
     pagecolor="#ffffff"
     bordercolor="#666666"
     borderopacity="1.0"
     inkscape:pageopacity="0.0"
     inkscape:pageshadow="2"
     inkscape:zoom="5.6"
     inkscape:cx="25"
     inkscape:cy="34.285714"
     inkscape:document-units="px"
     inkscape:current-layer="layer1"
     showgrid="false"
     inkscape:window-width="1271"
     inkscape:window-height="744"
     inkscape:window-x="20"
     inkscape:window-y="20"
     inkscape:window-maximized="0" />
  <metadata
     id="metadata3130">
    <rdf:RDF>
      <cc:Work
         rdf:about="">
        <dc:format>image/svg+xml</dc:format>
        <dc:type
           rdf:resource="http://purl.org/dc/dcmitype/StillImage" />
        <dc:title></dc:title>
      </cc:Work>
    </rdf:RDF>
  </metadata>
  <g
     inkscape:label="Layer 1"
     inkscape:groupmode="layer"
     id="layer1"
     transform="translate(0,-1022.3622)">
    <path
       d="m 24.307141,1030.32 c -0.09673,-0.363 -0.293525,-0.7497 -0.438927,-1.0883 -1.740896,-4.1836 -5.544629,-5.6831 -8.615908,-5.6831 -4.111466,0 -8.6397905,2.7569 -9.244374,8.4397 v 1.1612 c 0,0.048 0.016625,0.4837 0.040507,0.7012 0.3388686,2.7083 2.4757668,5.5865 4.071864,8.2947 1.717015,2.9016 3.498721,5.7559 5.264103,8.6092 1.088249,-1.8618 2.17287,-3.7481 3.236331,-5.5621 0.2902,-0.5321 0.626649,-1.0642 0.916849,-1.572 0.193467,-0.3383 0.562866,-0.6768 0.731848,-0.9915 1.716713,-3.1435 4.480563,-6.3115 4.480563,-9.4311 v -1.2818 c 0,-0.3383 -0.418976,-1.5232 -0.442857,-1.5961 z m -8.979565,5.8282 c -1.208561,0 -2.531388,-0.6043 -3.184337,-2.2733 -0.09734,-0.2656 -0.08948,-0.798 -0.08948,-0.8467 v -0.7496 c 0,-2.1276 1.806494,-3.0951 3.378106,-3.0951 1.934665,0 3.43131,1.5479 3.43131,3.4826 -3.03e-4,1.9347 -1.600936,3.4821 -3.5356,3.4821 z"
       id="Facebook_Places"
       inkscape:connector-curvature="0"
       style="fill:#e92828;fill-opacity:1" />
  </g>
</svg>
